HIERARCHY
ROOT joint_Root
{
	OFFSET 0.0 0.0 0.0
	CHANNELS 6 Xposition Yposition Zposition Zrotation Xrotation Yrotation 
	JOINT Hips
	{
		OFFSET 4.5925 91.4895 -427.239
		CHANNELS 6 Xposition Yposition Zposition Zrotation Xrotation Yrotation 
		JOINT Spine
		{
			OFFSET 15.7357 0.0 0.0
			CHANNELS 6 Xposition Yposition Zposition Zrotation Xrotation Yrotation 
			JOINT Chest
			{
				OFFSET 8.98455 -0.406207 0.0
				CHANNELS 6 Xposition Yposition Zposition Zrotation Xrotation Yrotation 
				JOINT Neck
				{
					OFFSET 16.3773 0.0 0.0
					CHANNELS 6 Xposition Yposition Zposition Zrotation Xrotation Yrotation 
					JOINT Head
					{
						OFFSET 6.45672 0.0 0.0
						CHANNELS 6 Xposition Yposition Zposition Zrotation Xrotation Yrotation 
						End Site
						{
							OFFSET 0.0 0.0 0.0
						}
					}
				}
				JOINT Shoulder_L
				{
					OFFSET 12.9942 -0.242716 4.98039
					CHANNELS 6 Xposition Yposition Zposition Zrotation Xrotation Yrotation 
					JOINT UpperArm_L
					{
						OFFSET 5.34809 0.0 0.0
						CHANNELS 6 Xposition Yposition Zposition Zrotation Xrotation Yrotation 
						JOINT LowerArm_L
						{
							OFFSET 24.3286 1.87007e-05 0.0
							CHANNELS 6 Xposition Yposition Zposition Zrotation Xrotation Yrotation 
							JOINT Hand_L
							{
								OFFSET 22.2916 0.0 0.0
								CHANNELS 6 Xposition Yposition Zposition Zrotation Xrotation Yrotation 
								End Site
								{
									OFFSET 0.0 0.0 0.0
								}
							}
						}
					}
				}
				JOINT Shoulder_R
				{
					OFFSET 12.9945 -0.242716 -4.98039
					CHANNELS 6 Xposition Yposition Zposition Zrotation Xrotation Yrotation 
					JOINT UpperArm_R
					{
						OFFSET -5.34813 0.0 0.0
						CHANNELS 6 Xposition Yposition Zposition Zrotation Xrotation Yrotation 
						JOINT LowerArm_R
						{
							OFFSET -24.3289 0.000322201 0.0
							CHANNELS 6 Xposition Yposition Zposition Zrotation Xrotation Yrotation 
							JOINT Hand_R
							{
								OFFSET -22.2915 -0.000108084 0.0
								CHANNELS 6 Xposition Yposition Zposition Zrotation Xrotation Yrotation 
								End Site
								{
									OFFSET 0.0 0.0 0.0
								}
							}
						}
					}
				}
			}
		}
		JOINT UpperLeg_L
		{
			OFFSET -2.19248 -6.46944 0.0
			CHANNELS 6 Xposition Yposition Zposition Zrotation Xrotation Yrotation 
			JOINT LowerLeg_L
			{
				OFFSET 39.0811 0.0 -1.23785e-05
				CHANNELS 6 Xposition Yposition Zposition Zrotation Xrotation Yrotation 
				JOINT Foot_L
				{
					OFFSET 40.9854 0.0 -1.26872e-05
					CHANNELS 6 Xposition Yposition Zposition Zrotation Xrotation Yrotation 
					JOINT Toes_L
					{
						OFFSET 11.7543 0.0 0.0
						CHANNELS 6 Xposition Yposition Zposition Zrotation Xrotation Yrotation 
						End Site
						{
							OFFSET 0.0 0.0 0.0
						}
					}
				}
			}
		}
		JOINT UpperLeg_R
		{
			OFFSET -2.19251 6.46944 0.0
			CHANNELS 6 Xposition Yposition Zposition Zrotation Xrotation Yrotation 
			JOINT LowerLeg_R
			{
				OFFSET -39.0811 -0.00228153 -0.0401928
				CHANNELS 6 Xposition Yposition Zposition Zrotation Xrotation Yrotation 
				JOINT Foot_R
				{
					OFFSET -40.9854 0.0 0.0
					CHANNELS 6 Xposition Yposition Zposition Zrotation Xrotation Yrotation 
					JOINT Toes_R
					{
						OFFSET -11.7543 0.0 0.0
						CHANNELS 6 Xposition Yposition Zposition Zrotation Xrotation Yrotation 
						End Site
						{
							OFFSET 0.0 0.0 0.0
						}
					}
				}
			}
		}
	}
}
MOTION
Frames:	5
Frame Time:	0.0333333
0.000000 0.000000 0.000000 0.000000 0.000000 -0.000000 1.584670 80.327000 1.626760 91.437700 -1.044950 13.214600 15.735700 0.000005 -0.000001 104.965000 79.264100 -105.391000 8.984550 -0.406207 -0.000000 13.041300 5.468950 -1.478190 16.377300 -0.000001 -0.000001 -0.122601 -8.704910 2.694420 6.456720 -0.000001 -0.000000 -2.114610 -14.183300 4.102940 12.994200 -0.242716 4.980390 -92.499400 5.791850 -66.608400 5.348090 -0.000007 -0.000001 -70.993000 1.193740 18.373200 24.328600 0.000019 0.000005 -1.264500 -2.339790 -28.396300 22.291600 -0.000001 0.000005 26.683100 5.139130 4.201800 12.994500 -0.242716 -4.980390 88.565400 8.309860 -80.169100 -5.348130 -0.000001 -0.000004 -60.899700 25.345000 -10.856600 -24.328900 0.000322 -0.000009 -1.611590 -3.717550 -23.443700 -22.291500 -0.000108 -0.000004 17.714400 5.422780 -3.693040 -2.192480 -6.469440 -0.000000 -174.279000 -20.453900 -12.275900 39.081100 -0.000007 -0.000012 -0.129867 0.057606 66.081100 40.985400 -0.000006 -0.000013 8.810970 12.284000 -90.662600 11.754300 -0.000000 0.000003 -0.000090 -0.000938 -16.613600 -2.192510 6.469440 -0.000001 172.130000 11.726700 165.450000 -39.081100 -0.002282 -0.040193 0.105231 -0.041210 68.019000 -40.985400 0.000008 0.000006 3.693220 2.307750 -88.071100 -11.754300 -0.000006 -0.000006 -1.516390 -1.883070 -17.435000
0.000000 0.000000 0.000000 0.000000 0.000000 -0.000000 2.154730 81.951300 1.569020 91.772000 -4.237620 12.439700 15.735700 0.000005 -0.000001 104.648000 79.729400 -104.480000 8.984550 -0.406207 -0.000000 12.135600 5.154770 -0.212775 16.377300 -0.000001 -0.000001 0.257448 -7.435140 2.475840 6.456720 -0.000001 -0.000000 -1.910530 -12.003100 1.941880 12.994200 -0.242716 4.980390 -92.040300 4.619470 -66.136800 5.348090 -0.000007 -0.000001 -71.941900 -1.223070 17.233300 24.328600 0.000019 0.000005 -1.148200 -2.128100 -28.354600 22.291600 -0.000001 0.000005 27.998600 5.108190 4.924650 12.994500 -0.242716 -4.980390 88.485100 8.401250 -79.739800 -5.348130 -0.000001 -0.000004 -60.242100 24.813800 -11.784200 -24.328900 0.000322 -0.000009 -1.574490 -3.496000 -24.250300 -22.291500 -0.000108 -0.000004 17.646500 5.428010 -3.870740 -2.192480 -6.469440 -0.000000 -175.024000 -22.487800 -10.596100 39.081100 -0.000007 -0.000012 -0.138347 0.075051 61.522700 40.985400 -0.000006 -0.000013 8.005620 11.253400 -88.436500 11.754300 -0.000000 0.000003 -0.000079 -0.000837 -16.609800 -2.192510 6.469440 -0.000001 172.028000 9.761530 165.850000 -39.081100 -0.002282 -0.040193 0.079385 -0.037326 63.905800 -40.985400 0.000008 0.000006 3.849740 3.717860 -85.673800 -11.754300 -0.000006 -0.000006 -1.392790 -1.725960 -17.393600
0.000000 0.000000 0.000000 0.000000 0.000000 -0.000000 2.574290 84.243000 1.512970 91.974000 -6.760930 11.085200 15.735700 0.000005 -0.000001 103.955000 80.554300 -103.082000 8.984550 -0.406207 -0.000000 10.557800 4.545430 1.326360 16.377300 -0.000001 -0.000001 1.367140 -5.897060 1.448590 6.456720 -0.000001 -0.000000 -1.571250 -9.404940 -1.075860 12.994200 -0.242716 4.980390 -91.406800 3.128870 -65.775600 5.348090 -0.000007 -0.000001 -68.557700 -4.846820 11.637000 24.328600 0.000019 0.000005 1.704230 2.945830 -30.036600 22.291600 -0.000001 0.000005 26.602100 5.088360 5.380050 12.994500 -0.242716 -4.980390 88.458200 8.061720 -79.135300 -5.348130 -0.000001 -0.000004 -60.483900 25.078300 -11.864900 -24.328900 0.000322 -0.000009 -1.420570 -3.079230 -24.764400 -22.291500 -0.000108 -0.000004 18.030100 5.435560 -4.131090 -2.192480 -6.469440 -0.000000 -175.883000 -24.189800 -8.633690 39.081100 -0.000007 -0.000012 -0.136866 0.096893 54.704900 40.985400 -0.000006 -0.000013 7.149630 10.748700 -84.965600 11.754300 -0.000000 0.000003 -0.000085 -0.000898 -16.612100 -2.192510 6.469440 -0.000001 171.962000 9.007560 166.953000 -39.081100 -0.002282 -0.040193 0.056955 -0.034183 57.540500 -40.985400 0.000008 0.000006 4.121860 5.549630 -82.238300 -11.754300 -0.000006 -0.000006 -1.091060 -1.339780 -17.519800
0.000000 0.000000 0.000000 0.000000 0.000000 -0.000000 2.693570 86.628100 1.360870 91.742000 -8.381150 8.998130 15.735700 0.000005 -0.000001 102.329000 81.860100 -100.630000 8.984550 -0.406207 -0.000000 8.100080 3.465800 3.149120 16.377300 -0.000001 -0.000001 3.468440 -4.381620 0.001363 6.456720 -0.000001 -0.000000 -1.050370 -6.875520 -4.964050 12.994200 -0.242716 4.980390 -90.577100 1.306260 -66.167200 5.348090 -0.000007 -0.000001 -61.391500 -11.499600 4.059640 24.328600 0.000019 0.000005 3.339520 4.782110 -34.978800 22.291600 -0.000001 0.000005 25.951700 5.091220 5.313530 12.994500 -0.242716 -4.980390 88.493200 7.442040 -78.519600 -5.348130 -0.000001 -0.000004 -61.051900 25.957400 -11.434200 -24.328900 0.000322 -0.000009 -1.068560 -2.346320 -24.471400 -22.291500 -0.000108 -0.000004 17.216500 5.434660 -4.098840 -2.192480 -6.469440 -0.000000 -176.518000 -25.392900 -7.129290 39.081100 -0.000007 -0.000012 -0.125513 0.117261 46.947600 40.985400 -0.000006 -0.000013 6.340550 10.935100 -80.887500 11.754300 -0.000000 0.000003 -0.000051 -0.000575 -16.599900 -2.192510 6.469440 -0.000001 172.553000 9.181900 168.118000 -39.081100 -0.002282 -0.040193 0.040908 -0.031571 50.026900 -40.985400 0.000008 0.000006 4.212560 7.095810 -78.263700 -11.754300 -0.000006 -0.000006 -0.691034 -0.844483 -17.735600
0.000000 0.000000 0.000000 0.000000 0.000000 -0.000000 2.512090 88.613200 1.299020 91.310500 -8.924980 7.426110 15.735700 0.000005 -0.000001 98.663400 83.049700 -96.292300 8.984550 -0.406207 -0.000000 5.940820 2.050640 4.630680 16.377300 -0.000001 -0.000001 5.853160 -3.174400 -1.100440 6.456720 -0.000001 -0.000000 -0.495960 -4.778600 -8.332090 12.994200 -0.242716 4.980390 -89.709500 -0.682473 -66.918600 5.348090 -0.000007 -0.000001 -52.212100 -20.922500 -6.522540 24.328600 0.000019 0.000005 3.571270 4.144790 -40.831500 22.291600 -0.000001 0.000005 25.823500 5.074290 5.696650 12.994500 -0.242716 -4.980390 88.519300 6.936290 -77.918200 -5.348130 -0.000001 -0.000004 -61.439300 27.010100 -10.630900 -24.328900 0.000322 -0.000009 -0.823901 -1.847690 -24.010000 -22.291500 -0.000108 -0.000004 15.588300 5.428290 -3.877980 -2.192480 -6.469440 -0.000000 -176.542000 -25.940100 -5.138080 39.081100 -0.000007 -0.000012 -0.104554 0.126665 39.537900 40.985400 -0.000006 -0.000013 5.557010 11.677900 -77.012200 11.754300 -0.000000 0.000003 -0.000033 -0.000396 -16.593000 -2.192510 6.469440 -0.000001 173.072000 11.237700 170.251000 -39.081100 -0.002282 -0.040193 0.028279 -0.027199 42.596800 -40.985400 0.000008 0.000006 4.398700 9.345630 -74.782100 -11.754300 -0.000006 -0.000006 -0.102927 -0.149830 -17.944500
